<?xml version="1.0"?>
<svg xmlns="http://www.w3.org/2000/svg" height="471pt" viewBox="0 -16 471.99829 471" width="471pt">
  <style>
    .line{
    stroke-dasharray: 37;
    stroke-dashoffset: 37;
    animation: dash .7s .3s ease-in-out forwards;
    transform-origin: center center;
    }
    @keyframes dash {
      to {
        stroke-dashoffset: 0;
      }
    }

    .star{
      transform-origin: center center;
      transform: scale(1) translate(120px, -100px);
      animation: popslide 1s 0s ease-in-out forwards;
    }
    @keyframes popslide {
			0% {
				transform: scale(.0) translate(120px, -100px);
			}
			40% {
				transform: scale(1.2) translate(120px, -100px);
			}
      50% {
				transform: scale(1.1) translate(120px, -100px);
			}
			100% {
				transform: scale(1.1) translate(0px, 0px);
			}
		}

    .grouplines {
        transform: scale(.8) translate(10px, 80px);
        opacity: 0;
        animation: opacity .5s .5s ease-in-out forwards;
    }

    @keyframes opacity {
      0% {
        transform: scale(.8) translate(-20px, 110px);
        opacity: 0;
      }
      100% {
        transform: scale(.8) translate(10px, 80px);
        opacity: 1;
      }
    }
  </style>
  <g fill="#fdd020" class="grouplines">
    <path d="m384 160.597656c-3.234375 0-6.152344-1.949218-7.390625-4.9375-1.238281-2.992187-.550781-6.429687 1.734375-8.71875l48-48c3.140625-3.03125 8.128906-2.988281 11.214844.097656 3.085937 3.085938 3.128906 8.074219.097656 11.214844l-48 48c-1.5 1.5-3.535156 2.34375-5.65625 2.34375zm0 0"/>
    <path d="m248 296.597656c-3.234375 0-6.152344-1.949218-7.390625-4.9375-1.238281-2.992187-.550781-6.429687 1.734375-8.71875l112-112c3.140625-3.03125 8.128906-2.988281 11.214844.097656 3.085937 3.085938 3.128906 8.074219.097656 11.214844l-112 112c-1.5 1.5-3.535156 2.34375-5.65625 2.34375zm0 0"/>
    <path d="m304 152.597656c-3.234375 0-6.152344-1.949218-7.390625-4.9375-1.238281-2.992187-.550781-6.429687 1.734375-8.71875l48-48c3.140625-3.03125 8.128906-2.988281 11.214844.097656 3.085937 3.085938 3.128906 8.074219.097656 11.214844l-48 48c-1.5 1.5-3.535156 2.34375-5.65625 2.34375zm0 0"/>
    <path d="m168 288.597656c-3.234375 0-6.152344-1.949218-7.390625-4.9375-1.238281-2.992187-.550781-6.429687 1.734375-8.71875l112-112c3.140625-3.03125 8.128906-2.988281 11.214844.097656 3.085937 3.085938 3.128906 8.074219.097656 11.214844l-112 112c-1.5 1.5-3.535156 2.34375-5.65625 2.34375zm0 0"/>
    <path d="m469.65625 146.941406c-3.125-3.121094-8.1875-3.121094-11.3125 0l-208 208c-2.078125 2.007813-2.914062 4.984375-2.179688 7.78125.730469 2.796875 2.914063 4.980469 5.710938 5.710938 2.796875.734375 5.773438-.101563 7.78125-2.179688l208-208c3.121094-3.125 3.121094-8.1875 0-11.3125zm0 0" fill="#fdd020"/>
    <path class="line" d="m152 224.597656c-3.234375 0-6.152344-1.949218-7.390625-4.9375-1.238281-2.992187-.550781-6.429687 1.734375-8.71875l208-208c2.007812-2.078125 4.984375-2.9140622 7.78125-2.179687 2.796875.730469 4.980469 2.914062 5.710938 5.710937.734374 2.796875-.101563 5.773438-2.179688 7.78125l-208 208c-1.5 1.5-3.535156 2.34375-5.65625 2.34375zm0 0" fill="#fdd020"/>

  </g>
  <path class="star" d="m96 410.535156 59.328125 30.0625-11.328125-63.679687 48-45.097657-66.335938-9.285156-29.664062-57.9375-29.664062 57.9375-66.335938 9.285156 48 45.097657-11.328125 63.679687zm0 0" fill="#ffde3d"/>
</svg>
